<mxfile host="app.diagrams.net" modified="2020-07-31T20:32:47.985Z" agent="5.0 (X11)" etag="pQzhyfE5OJeuhqZbSmqt" version="13.5.8" type="github">
  <diagram id="_0pSl_Vz3X0FWvSdbNv4" name="Page-1">
    <mxGraphModel dx="1422" dy="773" grid="1" gridSize="10" guides="1" tooltips="1" connect="1" arrows="1" fold="1" page="1" pageScale="1" pageWidth="827" pageHeight="1169" math="0" shadow="0">
      <root>
        <mxCell id="0" />
        <mxCell id="1" parent="0" />
        <mxCell id="UsGbC5DZ60z8ubp5nCdV-1" value="" style="html=1;whiteSpace=wrap;shape=isoCube2;backgroundOutline=1;isoAngle=15;" vertex="1" parent="1">
          <mxGeometry x="40" y="40" width="90" height="100" as="geometry" />
        </mxCell>
        <mxCell id="UsGbC5DZ60z8ubp5nCdV-2" value="Jupiter" style="text;html=1;strokeColor=none;fillColor=none;align=center;verticalAlign=middle;whiteSpace=wrap;rounded=0;" vertex="1" parent="1">
          <mxGeometry x="65" y="10" width="40" height="20" as="geometry" />
        </mxCell>
        <mxCell id="UsGbC5DZ60z8ubp5nCdV-3" value="Services" style="shape=table;html=1;whiteSpace=wrap;startSize=30;container=1;collapsible=0;childLayout=tableLayout;fontStyle=1;align=center;" vertex="1" parent="1">
          <mxGeometry x="180" y="10" width="180" height="150" as="geometry" />
        </mxCell>
        <mxCell id="UsGbC5DZ60z8ubp5nCdV-4" value="" style="shape=partialRectangle;html=1;whiteSpace=wrap;collapsible=0;dropTarget=0;pointerEvents=0;fillColor=none;top=0;left=0;bottom=0;right=0;points=[[0,0.5],[1,0.5]];portConstraint=eastwest;" vertex="1" parent="UsGbC5DZ60z8ubp5nCdV-3">
          <mxGeometry y="30" width="180" height="40" as="geometry" />
        </mxCell>
        <mxCell id="UsGbC5DZ60z8ubp5nCdV-5" value="nfs" style="shape=partialRectangle;html=1;whiteSpace=wrap;connectable=0;fillColor=none;top=0;left=0;bottom=0;right=0;overflow=hidden;" vertex="1" parent="UsGbC5DZ60z8ubp5nCdV-4">
          <mxGeometry width="60" height="40" as="geometry" />
        </mxCell>
        <mxCell id="UsGbC5DZ60z8ubp5nCdV-6" value="smb" style="shape=partialRectangle;html=1;whiteSpace=wrap;connectable=0;fillColor=none;top=0;left=0;bottom=0;right=0;overflow=hidden;" vertex="1" parent="UsGbC5DZ60z8ubp5nCdV-4">
          <mxGeometry x="60" width="60" height="40" as="geometry" />
        </mxCell>
        <mxCell id="UsGbC5DZ60z8ubp5nCdV-7" value="jellyfin" style="shape=partialRectangle;html=1;whiteSpace=wrap;connectable=0;fillColor=none;top=0;left=0;bottom=0;right=0;overflow=hidden;" vertex="1" parent="UsGbC5DZ60z8ubp5nCdV-4">
          <mxGeometry x="120" width="60" height="40" as="geometry" />
        </mxCell>
        <mxCell id="UsGbC5DZ60z8ubp5nCdV-8" value="" style="shape=partialRectangle;html=1;whiteSpace=wrap;collapsible=0;dropTarget=0;pointerEvents=0;fillColor=none;top=0;left=0;bottom=0;right=0;points=[[0,0.5],[1,0.5]];portConstraint=eastwest;" vertex="1" parent="UsGbC5DZ60z8ubp5nCdV-3">
          <mxGeometry y="70" width="180" height="40" as="geometry" />
        </mxCell>
        <mxCell id="UsGbC5DZ60z8ubp5nCdV-9" value="apache" style="shape=partialRectangle;html=1;whiteSpace=wrap;connectable=0;fillColor=none;top=0;left=0;bottom=0;right=0;overflow=hidden;" vertex="1" parent="UsGbC5DZ60z8ubp5nCdV-8">
          <mxGeometry width="60" height="40" as="geometry" />
        </mxCell>
        <mxCell id="UsGbC5DZ60z8ubp5nCdV-10" value="vms" style="shape=partialRectangle;html=1;whiteSpace=wrap;connectable=0;fillColor=none;top=0;left=0;bottom=0;right=0;overflow=hidden;" vertex="1" parent="UsGbC5DZ60z8ubp5nCdV-8">
          <mxGeometry x="60" width="60" height="40" as="geometry" />
        </mxCell>
        <mxCell id="UsGbC5DZ60z8ubp5nCdV-11" value="postgres" style="shape=partialRectangle;html=1;whiteSpace=wrap;connectable=0;fillColor=none;top=0;left=0;bottom=0;right=0;overflow=hidden;" vertex="1" parent="UsGbC5DZ60z8ubp5nCdV-8">
          <mxGeometry x="120" width="60" height="40" as="geometry" />
        </mxCell>
        <mxCell id="UsGbC5DZ60z8ubp5nCdV-12" value="" style="shape=partialRectangle;html=1;whiteSpace=wrap;collapsible=0;dropTarget=0;pointerEvents=0;fillColor=none;top=0;left=0;bottom=0;right=0;points=[[0,0.5],[1,0.5]];portConstraint=eastwest;" vertex="1" parent="UsGbC5DZ60z8ubp5nCdV-3">
          <mxGeometry y="110" width="180" height="40" as="geometry" />
        </mxCell>
        <mxCell id="UsGbC5DZ60z8ubp5nCdV-13" value="" style="shape=partialRectangle;html=1;whiteSpace=wrap;connectable=0;fillColor=none;top=0;left=0;bottom=0;right=0;overflow=hidden;" vertex="1" parent="UsGbC5DZ60z8ubp5nCdV-12">
          <mxGeometry width="60" height="40" as="geometry" />
        </mxCell>
        <mxCell id="UsGbC5DZ60z8ubp5nCdV-14" value="" style="shape=partialRectangle;html=1;whiteSpace=wrap;connectable=0;fillColor=none;top=0;left=0;bottom=0;right=0;overflow=hidden;" vertex="1" parent="UsGbC5DZ60z8ubp5nCdV-12">
          <mxGeometry x="60" width="60" height="40" as="geometry" />
        </mxCell>
        <mxCell id="UsGbC5DZ60z8ubp5nCdV-15" value="" style="shape=partialRectangle;html=1;whiteSpace=wrap;connectable=0;fillColor=none;top=0;left=0;bottom=0;right=0;overflow=hidden;" vertex="1" parent="UsGbC5DZ60z8ubp5nCdV-12">
          <mxGeometry x="120" width="60" height="40" as="geometry" />
        </mxCell>
        <mxCell id="UsGbC5DZ60z8ubp5nCdV-16" value="Kubernetes" style="html=1;whiteSpace=wrap;aspect=fixed;shape=isoRectangle;" vertex="1" parent="1">
          <mxGeometry x="420" y="30" width="150" height="90" as="geometry" />
        </mxCell>
        <mxCell id="UsGbC5DZ60z8ubp5nCdV-17" value="Services" style="shape=table;html=1;whiteSpace=wrap;startSize=30;container=1;collapsible=0;childLayout=tableLayout;fontStyle=1;align=center;" vertex="1" parent="1">
          <mxGeometry x="610" y="10" width="180" height="150" as="geometry" />
        </mxCell>
        <mxCell id="UsGbC5DZ60z8ubp5nCdV-18" value="" style="shape=partialRectangle;html=1;whiteSpace=wrap;collapsible=0;dropTarget=0;pointerEvents=0;fillColor=none;top=0;left=0;bottom=0;right=0;points=[[0,0.5],[1,0.5]];portConstraint=eastwest;" vertex="1" parent="UsGbC5DZ60z8ubp5nCdV-17">
          <mxGeometry y="30" width="180" height="40" as="geometry" />
        </mxCell>
        <mxCell id="UsGbC5DZ60z8ubp5nCdV-19" value="GitLab" style="shape=partialRectangle;html=1;whiteSpace=wrap;connectable=0;fillColor=none;top=0;left=0;bottom=0;right=0;overflow=hidden;" vertex="1" parent="UsGbC5DZ60z8ubp5nCdV-18">
          <mxGeometry width="60" height="40" as="geometry" />
        </mxCell>
        <mxCell id="UsGbC5DZ60z8ubp5nCdV-20" value="nextcloud" style="shape=partialRectangle;html=1;whiteSpace=wrap;connectable=0;fillColor=none;top=0;left=0;bottom=0;right=0;overflow=hidden;" vertex="1" parent="UsGbC5DZ60z8ubp5nCdV-18">
          <mxGeometry x="60" width="60" height="40" as="geometry" />
        </mxCell>
        <mxCell id="UsGbC5DZ60z8ubp5nCdV-21" value="dns" style="shape=partialRectangle;html=1;whiteSpace=wrap;connectable=0;fillColor=none;top=0;left=0;bottom=0;right=0;overflow=hidden;" vertex="1" parent="UsGbC5DZ60z8ubp5nCdV-18">
          <mxGeometry x="120" width="60" height="40" as="geometry" />
        </mxCell>
        <mxCell id="UsGbC5DZ60z8ubp5nCdV-22" value="" style="shape=partialRectangle;html=1;whiteSpace=wrap;collapsible=0;dropTarget=0;pointerEvents=0;fillColor=none;top=0;left=0;bottom=0;right=0;points=[[0,0.5],[1,0.5]];portConstraint=eastwest;" vertex="1" parent="UsGbC5DZ60z8ubp5nCdV-17">
          <mxGeometry y="70" width="180" height="40" as="geometry" />
        </mxCell>
        <mxCell id="UsGbC5DZ60z8ubp5nCdV-23" value="" style="shape=partialRectangle;html=1;whiteSpace=wrap;connectable=0;fillColor=none;top=0;left=0;bottom=0;right=0;overflow=hidden;" vertex="1" parent="UsGbC5DZ60z8ubp5nCdV-22">
          <mxGeometry width="60" height="40" as="geometry" />
        </mxCell>
        <mxCell id="UsGbC5DZ60z8ubp5nCdV-24" value="" style="shape=partialRectangle;html=1;whiteSpace=wrap;connectable=0;fillColor=none;top=0;left=0;bottom=0;right=0;overflow=hidden;" vertex="1" parent="UsGbC5DZ60z8ubp5nCdV-22">
          <mxGeometry x="60" width="60" height="40" as="geometry" />
        </mxCell>
        <mxCell id="UsGbC5DZ60z8ubp5nCdV-25" value="" style="shape=partialRectangle;html=1;whiteSpace=wrap;connectable=0;fillColor=none;top=0;left=0;bottom=0;right=0;overflow=hidden;" vertex="1" parent="UsGbC5DZ60z8ubp5nCdV-22">
          <mxGeometry x="120" width="60" height="40" as="geometry" />
        </mxCell>
        <mxCell id="UsGbC5DZ60z8ubp5nCdV-26" value="" style="shape=partialRectangle;html=1;whiteSpace=wrap;collapsible=0;dropTarget=0;pointerEvents=0;fillColor=none;top=0;left=0;bottom=0;right=0;points=[[0,0.5],[1,0.5]];portConstraint=eastwest;" vertex="1" parent="UsGbC5DZ60z8ubp5nCdV-17">
          <mxGeometry y="110" width="180" height="40" as="geometry" />
        </mxCell>
        <mxCell id="UsGbC5DZ60z8ubp5nCdV-27" value="" style="shape=partialRectangle;html=1;whiteSpace=wrap;connectable=0;fillColor=none;top=0;left=0;bottom=0;right=0;overflow=hidden;" vertex="1" parent="UsGbC5DZ60z8ubp5nCdV-26">
          <mxGeometry width="60" height="40" as="geometry" />
        </mxCell>
        <mxCell id="UsGbC5DZ60z8ubp5nCdV-28" value="" style="shape=partialRectangle;html=1;whiteSpace=wrap;connectable=0;fillColor=none;top=0;left=0;bottom=0;right=0;overflow=hidden;" vertex="1" parent="UsGbC5DZ60z8ubp5nCdV-26">
          <mxGeometry x="60" width="60" height="40" as="geometry" />
        </mxCell>
        <mxCell id="UsGbC5DZ60z8ubp5nCdV-29" value="" style="shape=partialRectangle;html=1;whiteSpace=wrap;connectable=0;fillColor=none;top=0;left=0;bottom=0;right=0;overflow=hidden;" vertex="1" parent="UsGbC5DZ60z8ubp5nCdV-26">
          <mxGeometry x="120" width="60" height="40" as="geometry" />
        </mxCell>
      </root>
    </mxGraphModel>
  </diagram>
</mxfile>
